<?xml version="1.0" encoding="UTF-8"?>
<svg version="1.1" xmlns="http://www.w3.org/2000/svg" width="200" height="100">
<path d="M0 0 C2.39028321 3.58542481 2.30624779 6.19338566 2.30078125 10.3359375 C2.30506638 11.05230377 2.3093515 11.76867004 2.31376648 12.50674438 C2.31950519 14.0214126 2.3200134 15.53610838 2.31567383 17.05078125 C2.31252068 19.35985807 2.33595269 21.6676447 2.36132812 23.9765625 C2.36360198 25.45051922 2.36430421 26.92447938 2.36328125 28.3984375 C2.372491 29.08505463 2.38170074 29.77167175 2.39118958 30.47909546 C2.34957183 34.82624871 2.0725009 37.82634681 -1 41 C-4.12206414 42.12229478 -7.30611081 42.492156 -10.5859375 42.91796875 C-11.62092377 43.07114059 -12.65591003 43.22431244 -13.72225952 43.38212585 C-16.11171264 43.7347544 -18.50256165 44.07799771 -20.89440918 44.41400146 C-25.42441869 45.05337513 -29.94487927 45.75143101 -34.46582031 46.45166016 C-42.42104895 47.68106863 -50.37970482 48.88559215 -58.3412056 50.0736866 C-62.98127186 50.76623885 -67.62070448 51.46249814 -72.25878906 52.16821289 C-76.81749302 52.86184257 -81.37746649 53.54643475 -85.93851852 54.22444725 C-87.65892679 54.48168313 -89.3788727 54.74203242 -91.09831619 55.00564003 C-93.48572447 55.37094932 -95.87459269 55.72457294 -98.26416016 56.07543945 C-98.96229324 56.18495941 -99.66042633 56.29447937 -100.37971497 56.40731812 C-104.48745849 56.99556394 -107.95913343 56.97188031 -112 56 C-113.89128342 54.10871658 -113.2366852 51.42932274 -113.328125 48.91015625 C-113.21984375 48.27980469 -113.1115625 47.64945313 -113 47 C-109.60686699 44.73791132 -107.48875805 44.42907819 -103.47851562 43.82666016 C-102.81919037 43.725504 -102.15986511 43.62434784 -101.4805603 43.52012634 C-99.29014598 43.18591759 -97.09828164 42.86247924 -94.90625 42.5390625 C-93.36086418 42.30552661 -91.81557762 42.07133302 -90.27038574 41.83651733 C-86.17835334 41.21653296 -82.08500785 40.60567475 -77.99133301 39.99664307 C-73.93349039 39.39131689 -69.87696586 38.77729837 -65.8203125 38.1640625 C-47.55232455 35.40636016 -29.27689488 32.69796224 -11 30 C-10.67 24.06 -10.34 18.12 -10 12 C-11.28158493 12.29881073 -12.56316986 12.59762146 -13.8835907 12.90548706 C-18.85006515 14.00711426 -23.82814152 14.79494521 -28.86254883 15.51220703 C-30.27402695 15.71747009 -30.27402695 15.71747009 -31.71401978 15.92687988 C-34.79454217 16.37392707 -37.87575083 16.81602272 -40.95703125 17.2578125 C-43.10938111 17.56861914 -45.26169895 17.87964758 -47.41398621 18.19088745 C-51.90971085 18.84022873 -56.40577362 19.48716051 -60.90209961 20.13232422 C-66.66739448 20.95972812 -72.43186099 21.79274886 -78.19609547 22.62750435 C-82.63352082 23.26956139 -87.07133815 23.90887396 -91.50928307 24.54732895 C-93.63569323 24.85353721 -95.76198733 25.16055266 -97.88816261 25.4683876 C-100.85319423 25.89721258 -103.81872582 26.3223937 -106.78442383 26.74658203 C-107.66292496 26.87435028 -108.54142609 27.00211853 -109.44654846 27.13375854 C-110.25521362 27.24866638 -111.06387878 27.36357422 -111.89704895 27.48196411 C-112.59698377 27.58260729 -113.29691858 27.68325047 -114.01806355 27.78694344 C-116 28 -116 28 -120 28 C-119.98428955 29.25659424 -119.98428955 29.25659424 -119.96826172 30.53857422 C-119.93419981 33.64338164 -119.90911089 36.74809392 -119.89013672 39.85302734 C-119.87511893 41.8591136 -119.84971019 43.86511324 -119.82421875 45.87109375 C-119.81455078 47.75634766 -119.81455078 47.75634766 -119.8046875 49.6796875 C-119.78897705 51.42354736 -119.78897705 51.42354736 -119.77294922 53.20263672 C-120 56 -120 56 -122 58 C-128.63183528 58.61268873 -133.78021844 57.06707743 -139.9765625 54.82421875 C-140.90544281 54.4983931 -141.83432312 54.17256744 -142.79135132 53.83686829 C-144.74479796 53.14910652 -146.69616382 52.4554089 -148.64550781 51.75610352 C-151.6186564 50.68977515 -154.59759417 49.6411975 -157.578125 48.59570312 C-159.48213329 47.92289987 -161.38579155 47.24910504 -163.2890625 46.57421875 C-164.17357086 46.26159592 -165.05807922 45.94897308 -165.96939087 45.62687683 C-177.5295494 41.4704506 -177.5295494 41.4704506 -180 39 C-180.11335216 36.4414799 -180.16417629 33.91097366 -180.16796875 31.3515625 C-180.17296135 30.19906509 -180.17296135 30.19906509 -180.17805481 29.02328491 C-180.18312771 27.39411011 -180.18546302 25.76492488 -180.18530273 24.13574219 C-180.18748477 21.64240343 -180.20562391 19.14951012 -180.22460938 16.65625 C-180.2275441 15.07552235 -180.22952837 13.49479259 -180.23046875 11.9140625 C-180.23765427 11.16710114 -180.24483978 10.42013977 -180.25224304 9.65054321 C-180.23562969 5.88537636 -180.14226613 4.21339919 -178 1 C-169.75494334 -1.33002568 -160.4551241 3.20622651 -152.82910156 6.01708984 C-150.48299945 6.88126205 -148.12937589 7.72165421 -145.7734375 8.55859375 C-144.27555616 9.09761105 -142.77814192 9.63792857 -141.28125 10.1796875 C-140.57923462 10.43185028 -139.87721924 10.68401306 -139.15393066 10.94381714 C-136.25874746 12.01608556 -134.20971855 12.79028145 -132 15 C-131.69921875 16.875 -131.69921875 16.875 -131.6875 19 C-131.67074219 19.70125 -131.65398437 20.4025 -131.63671875 21.125 C-131.75660156 21.74375 -131.87648437 22.3625 -132 23 C-135.34147754 25.22765169 -136.65103762 25.17814399 -140.5078125 24.57861328 C-145.82383867 23.34438699 -150.89649013 21.346201 -156 19.4375 C-157.15628906 19.01275391 -158.31257813 18.58800781 -159.50390625 18.15039062 C-162.33873298 17.10783038 -165.16975936 16.05494662 -168 15 C-168.33 20.28 -168.66 25.56 -169 31 C-166.94265625 31.59941406 -166.94265625 31.59941406 -164.84375 32.2109375 C-158.33174846 34.1649972 -151.91957773 36.38896731 -145.5 38.625 C-144.32179687 39.03234375 -143.14359375 39.4396875 -141.9296875 39.859375 C-133.2675047 42.86624765 -133.2675047 42.86624765 -131 44 C-131.01571045 43.2886792 -131.0314209 42.5773584 -131.04760742 41.84448242 C-131.10991915 38.62556896 -131.14897867 35.40678232 -131.1875 32.1875 C-131.21263672 31.06794922 -131.23777344 29.94839844 -131.26367188 28.79492188 C-131.27333984 27.72177734 -131.28300781 26.64863281 -131.29296875 25.54296875 C-131.3086792 24.55321045 -131.32438965 23.56345215 -131.34057617 22.54370117 C-130.93219505 19.49357725 -130.37353665 18.87810193 -128 17 C-125.83435059 16.36536121 -125.83435059 16.36536121 -123.27148438 15.99385071 C-122.29880112 15.8466861 -121.32611786 15.69952148 -120.32395935 15.54789734 C-119.25799026 15.39972061 -118.19202118 15.25154388 -117.09375 15.09887695 C-115.96981339 14.93262817 -114.84587677 14.76637939 -113.68788147 14.59509277 C-109.96027796 14.04709829 -106.23033307 13.51735023 -102.5 12.98828125 C-99.90734421 12.61229601 -97.31481639 12.2354273 -94.72241211 11.85771179 C-89.2795443 11.06662138 -83.83531972 10.2854826 -78.39013672 9.51049805 C-72.11792991 8.61771287 -65.84790657 7.7107415 -59.57891655 6.79566032 C-53.53105099 5.91308552 -47.48191574 5.03958376 -41.43212891 4.17027855 C-38.86754035 3.80112974 -36.30324474 3.42993952 -33.73925781 3.0566349 C-30.14103436 2.53430769 -26.54149078 2.02226019 -22.94140625 1.51293945 C-21.36674339 1.28156532 -21.36674339 1.28156532 -19.76026917 1.04551697 C-5.73245087 -0.90951586 -5.73245087 -0.90951586 0 0 Z " fill="#FEFBFA" transform="translate(189,21)"/>
<path d="M0 0 C2.66995022 2.66995022 1.27418489 10.26250765 1.29516602 14.1003418 C1.3123507 16.29344601 1.35621574 18.48503141 1.40039062 20.67773438 C1.41051995 22.07290557 1.4190353 23.4680896 1.42578125 24.86328125 C1.44765503 26.77040894 1.44765503 26.77040894 1.4699707 28.71606445 C0.89058739 32.76452418 0.24436381 33.56306916 -3 36 C-5.95684662 36.92355172 -8.95180233 37.3231894 -12.01611328 37.73925781 C-12.92722366 37.87639191 -13.83833405 38.013526 -14.77705383 38.15481567 C-17.78932725 38.60386536 -20.80446086 39.02882887 -23.8203125 39.453125 C-25.92074595 39.76004029 -28.02099421 40.06822547 -30.12106323 40.37762451 C-34.52623235 41.02309414 -38.93281027 41.6574341 -43.34082031 42.28320312 C-48.97185087 43.0828701 -54.5996117 43.90320147 -60.22654915 44.73112869 C-64.56672875 45.36852518 -68.9080027 45.99817579 -73.24969101 46.62520599 C-75.32380943 46.92503722 -77.3976996 47.22645196 -79.47134781 47.52951813 C-82.3824141 47.95309614 -85.29469128 48.36705594 -88.20751953 48.77832031 C-89.47664436 48.96525955 -89.47664436 48.96525955 -90.77140808 49.15597534 C-96.54349826 49.95687549 -102.17604594 50.13570554 -108 50 C-107.67 48.35 -107.34 46.7 -107 45 C-83.3494612 41.27517241 -59.68891706 37.62197106 -36.00689697 34.10229492 C-33.58503615 33.74234303 -31.16328306 33.38166556 -28.74163818 33.02026367 C-25.33591835 32.5124378 -21.92976311 32.00765075 -18.5234375 31.50390625 C-17.50044556 31.3511171 -16.47745361 31.19832794 -15.42346191 31.04090881 C-14.48627319 30.90309494 -13.54908447 30.76528107 -12.58349609 30.62329102 C-11.76658295 30.50228531 -10.9496698 30.3812796 -10.10800171 30.25660706 C-8 30 -8 30 -5 30 C-5 22.08 -5 14.16 -5 6 C-7.08868408 6.30703857 -9.17736816 6.61407715 -11.3293457 6.93041992 C-18.39377977 7.96879119 -25.45833003 9.00637041 -32.5229311 10.04360485 C-36.78739437 10.66974221 -41.05182344 11.29611022 -45.31616211 11.9230957 C-55.22414845 13.37971825 -65.13285786 14.83127426 -75.0425415 16.27630615 C-78.38292964 16.76352366 -81.72302958 17.25265699 -85.06292725 17.7432251 C-89.1407081 18.34197328 -93.21909806 18.93639551 -97.2979641 19.52770424 C-98.81923983 19.74894113 -100.34030466 19.97163376 -101.8611393 20.1958828 C-103.95789309 20.50478365 -106.05535731 20.80832826 -108.15307617 21.1105957 C-109.33536301 21.28307327 -110.51764984 21.45555084 -111.73576355 21.633255 C-115 22 -115 22 -121 22 C-121 31.57 -121 41.14 -121 51 C-126.62566813 52.12513363 -126.62566813 52.12513363 -130.52734375 50.78417969 C-131.39174072 50.49347595 -132.2561377 50.20277222 -133.14672852 49.90325928 C-134.06768311 49.57940247 -134.9886377 49.25554565 -135.9375 48.921875 C-136.89519287 48.5946344 -137.85288574 48.2673938 -138.83959961 47.93023682 C-140.86216185 47.23639728 -142.88271846 46.53668739 -144.90136719 45.83154297 C-147.98437549 44.75545356 -151.07344205 43.69853227 -154.1640625 42.64453125 C-156.13059541 41.96726872 -158.09675432 41.28891907 -160.0625 40.609375 C-160.98345459 40.29361511 -161.90440918 39.97785522 -162.85327148 39.65252686 C-172.48618166 36.27238904 -172.48618166 36.27238904 -175 34 C-175.58349609 30.73779297 -175.58349609 30.73779297 -175.5234375 26.7421875 C-175.51873444 26.03853058 -175.51403137 25.33487366 -175.50918579 24.6098938 C-175.48784197 22.36393152 -175.43121737 20.12033144 -175.375 17.875 C-175.35849415 16.35549089 -175.34414574 14.83595671 -175.33203125 13.31640625 C-175.19567626 2.19567626 -175.19567626 2.19567626 -174 1 C-168.94340378 0.57472383 -164.7287265 1.80864411 -160.01171875 3.44921875 C-158.8960125 3.83096001 -158.8960125 3.83096001 -157.75776672 4.22041321 C-156.19541541 4.75936071 -154.63481811 5.30341712 -153.07592773 5.85229492 C-150.68452703 6.68853961 -148.28363303 7.49203487 -145.88085938 8.29492188 C-144.36129269 8.82355165 -142.84238663 9.35408507 -141.32421875 9.88671875 C-140.60449387 10.12339767 -139.88476898 10.3600766 -139.14323425 10.60392761 C-137.1394043 11.33081055 -137.1394043 11.33081055 -134 13 C-133.04223633 15.69458008 -133.04223633 15.69458008 -133 18 C-137.07528458 19.66687379 -139.90936545 18.21994208 -143.8828125 16.7265625 C-144.53829071 16.48336273 -145.19376892 16.24016296 -145.86911011 15.98959351 C-147.95835912 15.21152042 -150.04152392 14.41838461 -152.125 13.625 C-153.53479336 13.09798655 -154.94494622 12.57193375 -156.35546875 12.046875 C-166.45902094 8.27048953 -166.45902094 8.27048953 -169 7 C-168.98839844 8.14597656 -168.97679687 9.29195312 -168.96484375 10.47265625 C-168.95545758 12.00260252 -168.94635827 13.53255058 -168.9375 15.0625 C-168.92912109 15.81466797 -168.92074219 16.56683594 -168.91210938 17.34179688 C-168.89191659 22.00633118 -169.22404041 26.39923173 -170 31 C-169.35651611 31.1043335 -168.71303223 31.20866699 -168.05004883 31.31616211 C-163.98800891 32.22689402 -160.12931617 33.57900426 -156.19921875 34.94140625 C-155.36284378 35.22853989 -154.52646881 35.51567352 -153.66474915 35.81150818 C-151.00462604 36.72551418 -148.34605419 37.64394176 -145.6875 38.5625 C-143.87965798 39.1845375 -142.07171635 39.80628558 -140.26367188 40.42773438 C-135.84109056 41.94793328 -131.42063595 43.47410598 -127 45 C-126.67 36.09 -126.34 27.18 -126 18 C-121.24980395 16.41660132 -117.38467992 15.4922909 -112.49609375 14.81640625 C-111.77752701 14.71537094 -111.05896027 14.61433563 -110.31861877 14.51023865 C-108.02561542 14.18901307 -105.73163288 13.87554572 -103.4375 13.5625 C-101.9563067 13.35664803 -100.47518622 13.15027136 -98.99414062 12.94335938 C-95.93136055 12.51603023 -92.86824991 12.09117756 -89.80493164 11.66772461 C-77.74035783 9.99570739 -65.68645208 8.24806444 -53.63423157 6.48954773 C-48.73307482 5.77523023 -43.8313019 5.06519666 -38.92944336 4.35571289 C-36.4112557 3.99015097 -33.89335585 3.62260157 -31.37573242 3.25317383 C-27.68222466 2.71166863 -23.98772971 2.17740964 -20.29296875 1.64453125 C-19.17520554 1.47895218 -18.05744232 1.31337311 -16.9058075 1.14277649 C-11.21379133 0.32916461 -5.75177705 -0.28859061 0 0 Z " fill="#E02C20" transform="translate(187,24)"/>
</svg>
